<svg width='200' height='200' fill="#000000" xmlns="http://www.w3.org/2000/svg" xmlns:xlink="http://www.w3.org/1999/xlink" version="1.1" x="0px" y="0px" viewBox="0 0 144.083 144" enable-background="new 0 0 144.083 144" xml:space="preserve"><path d="M109.84,44.521h-76.18c-5.7,0-10.336,4.138-10.336,9.225v37.014c0,5.085,4.637,9.223,10.336,9.223h76.18  c5.701,0,10.338-4.138,10.338-9.223V53.745C120.178,48.658,115.542,44.521,109.84,44.521z M117.178,90.759  c0,3.432-3.291,6.223-7.338,6.223h-76.18c-4.045,0-7.336-2.791-7.336-6.223V53.745c0-3.433,3.291-6.225,7.336-6.225h76.18  c4.047,0,7.338,2.792,7.338,6.225V90.759z"/><path d="M72.046,70.345c-2.861-0.343-6.785-0.813-6.785-4.182c0-2.802,2.464-4.408,6.762-4.408c2.474,0,5.052,1.039,6.427,2.513  l2.209-1.022c-1.275-1.959-3.258-3.061-6.287-3.523l-0.848-0.13v-3.011h-2.602v3.039l-0.88,0.106  c-1.766,0.213-7.528,1.308-7.528,6.437c0,5.055,4.06,5.912,9.367,6.508c1.993,0.235,7.266,0.859,7.266,4.654  c0,3.053-2.785,4.949-7.269,4.949c-2.782,0-6.104-1.209-7.654-3.531l-2.468,1.045c2.045,3.6,5.983,4.49,8.255,4.693l0.911,0.082  v3.357h2.602v-3.555l0.928-0.067c3.813-0.277,7.66-2.541,7.66-6.974C82.112,72.009,77.749,71.048,72.046,70.345z"/></svg>