<svg width='200' height='200' fill="#000000" xmlns="http://www.w3.org/2000/svg" data-name="Layer 1" viewBox="0 0 100 100" x="0px" y="0px"><title>05</title><path d="M10,30V70a7,7,0,0,0,7,7H83a7,7,0,0,0,7-7V30a7,7,0,0,0-7-7H17A7,7,0,0,0,10,30ZM83,75H17a5,5,0,0,1-5-5V39H88V70A5,5,0,0,1,83,75Zm5-45v7H12V30a5,5,0,0,1,5-5H83A5,5,0,0,1,88,30Z"/><path d="M36.94,48.06H21.06a1,1,0,0,0-1,1V64.94a1,1,0,0,0,1,1H36.94a1,1,0,0,0,1-1V49.06A1,1,0,0,0,36.94,48.06Zm-1,15.88H22.06V50.06H35.94Z"/><path d="M77.94,60.94H49.06a1,1,0,0,0,0,2H77.94a1,1,0,0,0,0-2Z"/><path d="M77.94,51.06H49.06a1,1,0,0,0,0,2H77.94a1,1,0,0,0,0-2Z"/></svg>